<svg width="39" height="39" viewBox="0 0 39 39" fill="none" xmlns="http://www.w3.org/2000/svg">
<rect x="0.5" y="0.5" width="38" height="38" rx="19" stroke="white"/>
<g clip-path="url(#clip0_400_685)">
<path d="M18.871 11.7652C21.2223 11.7652 21.5012 11.7746 22.4302 11.8202C24.8168 11.9366 25.9315 13.1499 26.0401 15.688C26.0827 16.6827 26.0908 16.9815 26.0908 19.5007C26.0908 22.0208 26.082 22.3188 26.0401 23.3134C25.9308 25.8492 24.819 27.0648 22.4302 27.1812C21.5012 27.2268 21.2238 27.2362 18.871 27.2362C16.5196 27.2362 16.2408 27.2268 15.3124 27.1812C12.92 27.0641 11.8111 25.8453 11.7025 23.3127C11.6599 22.318 11.6511 22.02 11.6511 19.4999C11.6511 16.9807 11.6607 16.6827 11.7025 15.6872C11.8119 13.1499 12.9237 11.9358 15.3124 11.8195C16.2415 11.7746 16.5196 11.7652 18.871 11.7652V11.7652ZM18.871 10.0645C16.4793 10.0645 16.1799 10.0755 15.2405 10.1211C12.0423 10.2783 10.2649 12.1796 10.1181 15.6094C10.0748 16.6166 10.0645 16.9374 10.0645 19.4999C10.0645 22.0625 10.0748 22.3841 10.1174 23.3905C10.2641 26.8172 12.0386 28.7216 15.2398 28.8788C16.1799 28.9244 16.4793 28.9354 18.871 28.9354C21.2626 28.9354 21.5628 28.9244 22.5022 28.8788C25.6974 28.7216 27.4793 26.8203 27.6238 23.3905C27.6671 22.3841 27.6774 22.0625 27.6774 19.4999C27.6774 16.9374 27.6671 16.6166 27.6246 15.6102C27.4807 12.1867 25.704 10.2791 22.5029 10.1219C21.5628 10.0755 21.2626 10.0645 18.871 10.0645ZM18.871 14.6548C18.2771 14.6548 17.6891 14.7801 17.1404 15.0236C16.5918 15.2671 16.0933 15.624 15.6733 16.0739C15.2534 16.5238 14.9203 17.058 14.6931 17.6458C14.4658 18.2336 14.3489 18.8637 14.3489 19.4999C14.3489 20.1362 14.4658 20.7662 14.6931 21.3541C14.9203 21.9419 15.2534 22.476 15.6733 22.926C16.0933 23.3759 16.5918 23.7328 17.1404 23.9762C17.6891 24.2197 18.2771 24.3451 18.871 24.3451C20.0703 24.3451 21.2205 23.8346 22.0686 22.926C22.9166 22.0173 23.3931 20.7849 23.3931 19.4999C23.3931 18.2149 22.9166 16.9826 22.0686 16.0739C21.2205 15.1653 20.0703 14.6548 18.871 14.6548V14.6548ZM18.871 22.6451C18.0924 22.6451 17.3458 22.3137 16.7953 21.7239C16.2448 21.1341 15.9355 20.3341 15.9355 19.4999C15.9355 18.6658 16.2448 17.8658 16.7953 17.276C17.3458 16.6861 18.0924 16.3548 18.871 16.3548C19.6495 16.3548 20.3962 16.6861 20.9467 17.276C21.4972 17.8658 21.8064 18.6658 21.8064 19.4999C21.8064 20.3341 21.4972 21.1341 20.9467 21.7239C20.3962 22.3137 19.6495 22.6451 18.871 22.6451ZM23.5721 13.3315C23.4333 13.3315 23.2958 13.3608 23.1676 13.4177C23.0393 13.4746 22.9228 13.5581 22.8246 13.6632C22.7265 13.7684 22.6486 13.8933 22.5955 14.0307C22.5423 14.1681 22.515 14.3154 22.515 14.4641C22.515 14.6129 22.5423 14.7602 22.5955 14.8976C22.6486 15.035 22.7265 15.1599 22.8246 15.265C22.9228 15.3702 23.0393 15.4537 23.1676 15.5106C23.2958 15.5675 23.4333 15.5968 23.5721 15.5968C23.8525 15.5968 24.1214 15.4775 24.3197 15.265C24.5179 15.0526 24.6293 14.7645 24.6293 14.4641C24.6293 14.1637 24.5179 13.8756 24.3197 13.6632C24.1214 13.4508 23.8525 13.3315 23.5721 13.3315V13.3315Z" fill="white"/>
</g>
<defs>
<clipPath id="clip0_400_685">
<rect width="17.6129" height="18.871" fill="white" transform="translate(10.0645 10.0645)"/>
</clipPath>
</defs>
</svg>
