<svg width="255" height="76" viewBox="0 0 255 76" fill="none" xmlns="http://www.w3.org/2000/svg">
<path fill-rule="evenodd" clip-rule="evenodd" d="M0 21.7057V21.8946L42.9352 42.0642L86.0241 21.827V21.7763L42.9352 1.53613L0 21.7057ZM15.4797 21.8009L42.9352 8.90193L70.3969 21.8009L42.9352 34.6984L15.4782 21.8009H15.4797ZM42.9352 49.8985L0 30.0316V37.3805L42.9352 57.295L86.0241 37.3113V29.9624L42.9352 49.8985ZM42.9352 64.8037L0 44.9322V52.2795L42.9352 72.1987L86.0241 52.2135V44.8646L42.9352 64.8037V64.8037Z" fill="white"/>
<mask id="mask0_400_651" style="mask-type:alpha" maskUnits="userSpaceOnUse" x="110" y="0" width="145" height="75">
<path d="M110.624 0.0461426H254.96V74.2266H110.626L110.624 0.0461426Z" fill="white"/>
</mask>
<g mask="url(#mask0_400_651)">
<path fill-rule="evenodd" clip-rule="evenodd" d="M245.107 37.1016C245.132 33.9291 243.945 30.8667 241.787 28.5406C240.773 27.4528 239.55 26.579 238.193 25.9707C236.816 25.3533 235.323 25.0385 233.815 25.0475C232.263 25.0475 230.802 25.3547 229.434 25.9707C228.076 26.5789 226.854 27.4527 225.839 28.5406C223.682 30.8675 222.495 33.9304 222.521 37.1031C222.496 40.2753 223.683 43.3376 225.839 45.664C226.854 46.7514 228.076 47.6247 229.434 48.2325C230.811 48.8506 232.304 49.166 233.813 49.1572C235.365 49.1572 236.824 48.85 238.194 48.2325C239.551 47.6245 240.773 46.7512 241.787 45.664C243.945 43.3373 245.132 40.2744 245.105 37.1016H245.107ZM254.961 37.1016C254.961 40.0694 254.413 42.8206 253.318 45.3553C252.266 47.8263 250.731 50.0618 248.801 51.93C246.886 53.781 244.639 55.2419 242.061 56.3141C239.483 57.3879 236.734 57.924 233.813 57.924C230.895 57.924 228.156 57.3879 225.601 56.3141C223.105 55.2802 220.829 53.7809 218.894 51.8962C216.969 50.0114 215.435 47.7658 214.378 45.2877C213.283 42.7531 212.734 40.0249 212.734 37.1016C212.734 34.2244 213.293 31.5192 214.412 28.9846C215.494 26.5018 217.038 24.2472 218.962 22.3408C220.89 20.4381 223.168 18.9264 225.67 17.889C228.249 16.8112 231.018 16.2637 233.813 16.2791C236.734 16.2791 239.482 16.8168 242.061 17.889C244.639 18.9612 246.884 20.4237 248.801 22.2732C250.719 24.1227 252.224 26.3255 253.318 28.8817C254.413 31.4394 254.961 34.1798 254.961 37.1016V37.1016ZM209.312 56.692C208.467 57.0809 207.584 57.3795 206.677 57.583C205.697 57.8103 204.68 57.924 203.633 57.924C202.209 57.9291 200.792 57.7331 199.424 57.3418C198.125 56.9793 196.921 56.3365 195.898 55.4585C194.895 54.5906 194.096 53.4615 193.502 52.0682C192.91 50.675 192.614 48.9959 192.614 47.0343V0.045166H202.674V45.3215C202.674 46.9652 203.004 48.0958 203.666 48.7118C204.327 49.3277 205.115 49.6365 206.028 49.6365C207.167 49.6365 208.263 49.294 209.312 48.6088V56.692V56.692ZM188.165 17.2362L170.371 64.2944C169.048 67.8106 167.314 70.3453 165.169 71.8983C163.025 73.4498 160.469 74.2256 157.504 74.2256C157.048 74.2256 156.547 74.1918 155.998 74.1242C155.467 74.0587 154.941 73.9555 154.424 73.8154L151.14 64.637C151.908 64.9996 152.711 65.2862 153.536 65.4926C154.356 65.6984 155.132 65.8014 155.862 65.8014C157.413 65.8014 158.826 65.4481 160.104 64.7399C161.383 64.0333 162.363 62.7199 163.048 60.8012L164.416 56.8287L149.155 17.2377H159.9L169.002 42.7193L177.558 17.2377H188.165V17.2362ZM146.76 11.279H121.026V24.0198H146.417V32.6498H121.025V56.8963H110.625V2.16965H146.761V11.279H146.76Z" fill="white"/>
</g>
</svg>
