<svg width="39" height="39" viewBox="0 0 39 39" fill="none" xmlns="http://www.w3.org/2000/svg">
<rect x="0.5" y="0.5" width="38" height="38" rx="19" stroke="white"/>
<g clip-path="url(#clip0_400_681)">
<path d="M28.9355 14.3494C28.276 14.625 27.5764 14.8057 26.8601 14.8856C27.615 14.4602 28.1798 13.7902 28.4489 13.0008C27.7395 13.3977 26.9634 13.6773 26.1541 13.8277C25.8161 13.4875 25.4076 13.2165 24.9539 13.0314C24.5002 12.8463 24.0109 12.7511 23.5166 12.7517C21.1836 12.7517 19.4693 14.804 19.9962 16.9345C18.5595 16.8667 17.1541 16.5147 15.8711 15.9015C14.5881 15.2883 13.4562 14.4276 12.5489 13.3751C12.0869 14.1252 11.9453 15.0131 12.1529 15.8581C12.3606 16.7031 12.9018 17.4418 13.6666 17.9239C13.093 17.9069 12.5322 17.7607 12.0308 17.4977C11.9911 19.076 13.191 20.5526 14.9288 20.8813C14.3966 21.0176 13.8383 21.0374 13.2967 20.9394C13.5275 21.6164 13.977 22.2084 14.5823 22.6326C15.1876 23.0567 15.9184 23.2919 16.6725 23.3051C15.1579 24.4253 13.2338 24.933 11.3226 24.7167C12.9749 25.7176 14.8979 26.2489 16.8618 26.2472C23.5709 26.2472 27.3613 20.9048 27.1323 16.1131C27.8396 15.6307 28.4502 15.0335 28.9355 14.3494V14.3494Z" fill="white"/>
</g>
<defs>
<clipPath id="clip0_400_681">
<rect width="17.6129" height="13.8387" fill="white" transform="translate(11.3226 12.5801)"/>
</clipPath>
</defs>
</svg>
